<svg width="294" height="39" fill="none" xmlns="http://www.w3.org/2000/svg"><path fill-rule="evenodd" clip-rule="evenodd" d="M31.15 2.38a.52.52 0 0 0-.94 0l-1.27 2.85c-.28.62-.8 1.11-1.44 1.36l-2.73 1.05a.52.52 0 0 0 0 .96l2.73 1.05c.64.25 1.16.74 1.44 1.36l1.27 2.85c.18.4.76.4.94 0l1.28-2.85c.28-.62.8-1.11 1.43-1.36L36.6 8.6a.52.52 0 0 0 0-.96l-2.74-1.05a2.59 2.59 0 0 1-1.43-1.36l-1.28-2.85Zm-2.82-.85a2.58 2.58 0 0 1 4.71 0l1.27 2.85c.06.12.16.22.3.27l2.73 1.05a2.6 2.6 0 0 1 0 4.84l-2.74 1.05a.52.52 0 0 0-.29.27l-1.27 2.85a2.54 2.54 0 0 1-1.74 1.46l5.33 8.66a2.6 2.6 0 0 1-.97 3.64l-7.35 3.99c-.8.43-1.75.41-2.53-.04l-1.47-.86a2.6 2.6 0 0 1-1.38 3.6l-1.33.51a.52.52 0 0 0-.29.27l-.67 1.52a2.58 2.58 0 0 1-4.72 0l-.67-1.52a.52.52 0 0 0-.29-.27l-1.33-.52a2.6 2.6 0 0 1-.97-4.18 10.56 10.56 0 0 1-10.99-5.21 10.62 10.62 0 0 1 1.7-12.7 2.57 2.57 0 0 1-.9-1.1l-.21-.5a.52.52 0 0 0-.28-.28l-.35-.13a2.6 2.6 0 0 1 0-4.82l.35-.14a.52.52 0 0 0 .28-.27l.21-.5a2.58 2.58 0 0 1 4.75 0l.21.5c.06.12.16.22.28.27l.35.14a2.6 2.6 0 0 1 1.22 3.83l.22-.04.2-.13 7.13-4.26c.8-.49 1.8-.5 2.62-.02l3.02 1.76c.21-.72.73-1.35 1.56-1.67l2.74-1.05a.52.52 0 0 0 .28-.27l1.28-2.85Zm-2.69 10.08-7.23-4.2a.52.52 0 0 0-.53 0l-4.67 2.8a10.54 10.54 0 0 1 8.12 8.92l4.31-7.52ZM18.82 23.5a8.52 8.52 0 0 0-8.3-11.48v8.7c0 .17.09.34.25.44l7 4.19 1.05-1.85Zm-2.38 3.46L9.7 22.94a2.6 2.6 0 0 1-1.26-2.23v-8.35a8.5 8.5 0 0 0-4.98 12.38 8.48 8.48 0 0 0 12.97 2.22Zm3.19-.52c.43-.64.79-1.33 1.07-2.05l6.38-11.14 7.79 12.67c.16.25.07.59-.2.73l-7.35 3.98a.52.52 0 0 1-.5 0l-7.2-4.19ZM5.32 6.14a.52.52 0 0 0-.95 0l-.21.5a2.59 2.59 0 0 1-1.42 1.38l-.35.14a.52.52 0 0 0 0 .96l.35.14c.64.25 1.15.75 1.42 1.38l.21.5c.18.41.77.41.95 0l.21-.5c.27-.63.78-1.13 1.42-1.38l.35-.14a.52.52 0 0 0 0-.96l-.35-.14a2.59 2.59 0 0 1-1.42-1.38l-.21-.5Zm13.43 22.71a.52.52 0 0 0-.94 0l-.67 1.52c-.28.63-.8 1.12-1.43 1.37l-1.33.51a.52.52 0 0 0 0 .97l1.33.52c.64.25 1.15.74 1.43 1.37l.67 1.5c.18.42.76.42.94 0l.67-1.5c.28-.63.8-1.12 1.43-1.37l1.33-.52a.52.52 0 0 0 0-.97l-1.33-.51a2.59 2.59 0 0 1-1.43-1.37l-.67-1.52Z" fill="url(#a)"/><path d="M59.47 8.64h2.94l6.92 16.9h.24l6.92-16.9h2.94V29h-2.3V13.53h-.2L70.56 29h-2.22l-6.37-15.47h-.2V29h-2.3V8.64Zm29.08 20.72a6.2 6.2 0 0 1-2.63-.55 4.52 4.52 0 0 1-1.88-1.6c-.47-.7-.7-1.55-.7-2.55 0-.87.17-1.58.52-2.12.34-.55.8-.98 1.38-1.3a7.27 7.27 0 0 1 1.91-.7c.7-.15 1.4-.28 2.12-.37l2.26-.27c.58-.06 1-.17 1.27-.33.27-.15.4-.41.4-.8v-.07c0-.98-.26-1.74-.8-2.29-.53-.54-1.34-.81-2.42-.81-1.12 0-2 .24-2.63.73A4.35 4.35 0 0 0 86 17.9l-2.23-.8c.4-.92.93-1.64 1.59-2.16.67-.52 1.4-.89 2.19-1.1.8-.2 1.58-.31 2.34-.31.5 0 1.06.06 1.7.18a5.4 5.4 0 0 1 1.85.7c.6.36 1.1.9 1.5 1.62.4.73.6 1.7.6 2.9V29h-2.34v-2.07h-.12a4.59 4.59 0 0 1-2.28 2.03 5.7 5.7 0 0 1-2.26.4Zm.36-2.11c.93 0 1.71-.18 2.35-.55a3.72 3.72 0 0 0 1.95-3.23v-2.15c-.1.12-.32.23-.66.33-.33.1-.72.18-1.15.25a52.25 52.25 0 0 1-2.25.3c-.61.08-1.18.2-1.71.39-.53.17-.95.43-1.27.78a2 2 0 0 0-.48 1.41c0 .82.3 1.44.9 1.85.61.41 1.39.62 2.32.62Zm17.09 7.8a8.7 8.7 0 0 1-2.92-.44 6.2 6.2 0 0 1-3.32-2.63l1.86-1.3.81.95c.32.36.77.67 1.33.94.57.27 1.32.4 2.24.4 1.23 0 2.25-.3 3.05-.89.8-.6 1.2-1.53 1.2-2.8v-3.1h-.2c-.17.27-.41.62-.73 1.03-.31.4-.76.77-1.35 1.08-.58.32-1.37.47-2.37.47-1.23 0-2.34-.29-3.32-.87a6.14 6.14 0 0 1-2.32-2.55 8.9 8.9 0 0 1-.84-4.06c0-1.56.27-2.92.82-4.08a6.07 6.07 0 0 1 5.7-3.67c1 0 1.78.16 2.37.5.59.32 1.04.7 1.35 1.1.32.42.56.76.74 1.02h.23v-2.42h2.27v15.7c0 1.32-.3 2.39-.9 3.2a5.1 5.1 0 0 1-2.38 1.83 9 9 0 0 1-3.32.59Zm-.08-8.4c.94 0 1.74-.21 2.39-.64a4.02 4.02 0 0 0 1.48-1.86c.34-.81.5-1.78.5-2.9a7.9 7.9 0 0 0-.5-2.92 4.37 4.37 0 0 0-1.46-1.98 3.96 3.96 0 0 0-2.41-.71 3.99 3.99 0 0 0-3.97 2.78 7.84 7.84 0 0 0-.48 2.82c0 1.06.16 2 .5 2.82.33.8.83 1.44 1.48 1.9.67.46 1.49.7 2.47.7ZM116.9 29V13.73h2.34V29h-2.34Zm1.2-17.82c-.47 0-.86-.15-1.2-.47a1.5 1.5 0 0 1-.48-1.12c0-.44.16-.81.49-1.12.33-.31.72-.47 1.18-.47.46 0 .85.16 1.17.47.34.3.5.68.5 1.12 0 .44-.16.81-.5 1.12-.32.32-.71.47-1.17.47Zm11.65 18.14a6.6 6.6 0 0 1-3.7-1.02 6.6 6.6 0 0 1-2.39-2.79 9.46 9.46 0 0 1-.83-4.07c0-1.55.28-2.92.85-4.1a6.46 6.46 0 0 1 6.03-3.8c1.07-.01 2.04.19 2.9.59.86.4 1.57.95 2.12 1.67.55.71.89 1.55 1.02 2.5h-2.34a3.57 3.57 0 0 0-3.66-2.66c-.92 0-1.72.24-2.4.71a4.66 4.66 0 0 0-1.61 2 7.4 7.4 0 0 0-.57 3.01c0 1.18.19 2.21.56 3.09.38.87.9 1.55 1.6 2.03.68.49 1.49.73 2.42.73.6 0 1.16-.1 1.66-.32a3.43 3.43 0 0 0 2-2.34h2.34a5.42 5.42 0 0 1-3.04 4.14c-.85.42-1.84.63-2.96.63Zm17.63-.32V8.64h12.2v2.18h-9.74v6.88h8.83v2.2h-8.83V29h-2.46Zm15.95 0V13.73h2.26v2.3h.16c.28-.75.79-1.36 1.51-1.84.73-.47 1.56-.7 2.47-.7a25.66 25.66 0 0 1 1.23.04v2.38a7.02 7.02 0 0 0-1.43-.15c-.74 0-1.4.15-1.99.46a3.43 3.43 0 0 0-1.87 3.11V29h-2.34Zm14.91.36a6.2 6.2 0 0 1-2.64-.55 4.53 4.53 0 0 1-1.88-1.6c-.46-.7-.7-1.55-.7-2.55 0-.87.18-1.58.53-2.12.34-.55.8-.98 1.38-1.3a7.26 7.26 0 0 1 1.9-.7c.71-.15 1.42-.28 2.13-.37l2.25-.27c.59-.06 1.01-.17 1.28-.33.27-.15.4-.41.4-.8v-.07c0-.98-.26-1.74-.8-2.29-.53-.54-1.34-.81-2.42-.81-1.12 0-2 .24-2.63.73a4.35 4.35 0 0 0-1.35 1.57l-2.22-.8c.4-.92.93-1.64 1.59-2.16.67-.52 1.4-.89 2.19-1.1.8-.2 1.57-.31 2.34-.31.5 0 1.06.06 1.7.18.64.11 1.25.35 1.85.7.6.36 1.1.9 1.5 1.62.4.73.6 1.7.6 2.9V29h-2.35v-2.07h-.12a4.59 4.59 0 0 1-2.28 2.03 5.7 5.7 0 0 1-2.25.4Zm.36-2.11c.93 0 1.7-.18 2.34-.55a3.73 3.73 0 0 0 1.95-3.23v-2.15c-.1.12-.31.23-.65.33s-.72.18-1.16.25a51.56 51.56 0 0 1-2.24.3c-.61.08-1.18.2-1.71.39-.53.17-.95.43-1.28.78a2 2 0 0 0-.47 1.41c0 .82.3 1.44.9 1.85.61.41 1.38.62 2.32.62ZM189.52 29V13.73h2.27v2.38h.2c.32-.81.83-1.44 1.54-1.9.7-.45 1.56-.68 2.56-.68s1.84.23 2.51.68c.68.46 1.2 1.09 1.58 1.9h.16c.4-.79.98-1.41 1.76-1.88s1.72-.7 2.81-.7c1.37 0 2.49.43 3.36 1.28.86.85 1.3 2.17 1.3 3.97V29h-2.35V18.78c0-1.13-.3-1.93-.92-2.42a3.42 3.42 0 0 0-2.18-.72 3.2 3.2 0 0 0-2.5.97 3.48 3.48 0 0 0-.88 2.45V29h-2.39V18.54c0-.87-.28-1.57-.84-2.1a3.03 3.03 0 0 0-2.18-.8c-.61 0-1.18.16-1.71.48-.52.33-.95.78-1.27 1.36a3.98 3.98 0 0 0-.48 1.97V29h-2.35Zm30.74.32a7.18 7.18 0 0 1-3.8-.98A6.54 6.54 0 0 1 214 25.6a9.36 9.36 0 0 1-.86-4.12c0-1.56.29-2.94.86-4.13a6.46 6.46 0 0 1 6.03-3.82c.79 0 1.57.13 2.35.4a5.83 5.83 0 0 1 3.64 3.64 10 10 0 0 1 .57 3.6v.99H214.8v-2.03h9.39c0-.86-.17-1.63-.52-2.3a3.9 3.9 0 0 0-3.66-2.2c-.93 0-1.74.24-2.42.7a4.58 4.58 0 0 0-1.56 1.8 5.27 5.27 0 0 0-.55 2.36v1.35c0 1.15.2 2.13.6 2.93.4.8.96 1.4 1.68 1.82.71.41 1.54.62 2.5.62.6 0 1.16-.09 1.66-.26.5-.18.94-.44 1.3-.8.37-.35.65-.8.85-1.33l2.27.64a5.01 5.01 0 0 1-1.2 2.03 5.86 5.86 0 0 1-2.1 1.35c-.82.32-1.75.48-2.79.48Zm13.36-.32-4.66-15.27h2.47l3.3 11.7h.16l3.26-11.7h2.5l3.23 11.65h.16l3.3-11.65h2.46L245.15 29h-2.3l-3.35-11.73h-.24L235.92 29h-2.3Zm24.97.32a6.66 6.66 0 0 1-3.63-.99 6.68 6.68 0 0 1-2.43-2.75 9.31 9.31 0 0 1-.86-4.14c0-1.59.29-2.98.87-4.16a6.67 6.67 0 0 1 2.42-2.77 6.66 6.66 0 0 1 3.63-.98 6.6 6.6 0 0 1 3.62.98 6.58 6.58 0 0 1 2.43 2.77c.58 1.18.87 2.57.87 4.16 0 1.58-.3 2.96-.87 4.14a6.6 6.6 0 0 1-2.43 2.75 6.6 6.6 0 0 1-3.62.99Zm0-2.11c1.05 0 1.91-.27 2.59-.8a4.75 4.75 0 0 0 1.5-2.12 8.1 8.1 0 0 0 .48-2.85c0-1.02-.16-1.97-.48-2.85a4.81 4.81 0 0 0-1.5-2.14 4 4 0 0 0-2.59-.81 4 4 0 0 0-2.58.81 4.81 4.81 0 0 0-1.5 2.14 8.19 8.19 0 0 0-.5 2.85c0 1.02.17 1.97.5 2.85.32.87.82 1.58 1.5 2.11.67.54 1.53.81 2.58.81ZM269.1 29V13.73h2.27v2.3h.16c.28-.75.78-1.36 1.51-1.84.73-.47 1.55-.7 2.47-.7a25.73 25.73 0 0 1 1.23.04v2.38a6.88 6.88 0 0 0-1.43-.15c-.75 0-1.4.15-2 .46a3.43 3.43 0 0 0-1.87 3.11V29h-2.34Zm12.6-5.57-.03-2.9h.48l6.68-6.8h2.9l-7.12 7.2h-.2l-2.7 2.5ZM279.52 29V8.64h2.35V29h-2.35Zm9.7 0-5.96-7.56 1.67-1.63L292.2 29h-2.98Z" id="x" fill="#fff"/><defs><linearGradient id="a" x1="38.18" y1=".86" x2="1.13" y2="3.33" gradientUnits="userSpaceOnUse"><stop stop-color="#9E00FF"/><stop offset="1" stop-color="#FD89FF"/></linearGradient></defs><style>#x {fill: #000} @media (prefers-color-scheme: dark) {#x {fill: #fff}}</style></svg>